<svg width="671" height="156" viewBox="0 0 671 156" fill="none" xmlns="http://www.w3.org/2000/svg">
<g clip-path="url(#clip0_540_29198)">
<path d="M22 22.7692L62 0L102 22.7692V34L62 58.0385V128H44V82.9231L22 70V22.7692Z" fill="#237373"/>
<path d="M102.001 49.8701L102 34L128 50.6974L128 128H102L102.001 49.8701Z" fill="#237373"/>
<path d="M0 82.9897L22 70L22 90.8866V128H0V82.9897Z" fill="#237373"/>
</g>
<path d="M236.858 60.3303C234.806 54.8659 231.842 50.1763 227.956 46.2613C224.113 42.3051 219.557 39.2681 214.279 37.1609C209.043 35.0536 203.241 34 196.873 34H168V128H196.475C202.979 128 208.886 126.946 214.216 124.839C219.547 122.732 224.123 119.716 227.956 115.801C231.842 111.886 234.806 107.196 236.858 101.732C238.953 96.2259 240 90.1108 240 83.3965V78.6862C240 71.9306 238.953 65.8154 236.858 60.351V60.3303ZM221.798 83.3758C221.798 89.7906 220.835 95.2963 218.918 99.9033C217.002 104.469 214.164 107.971 210.415 110.429C206.665 112.836 202.015 114.045 196.475 114.045H186.003V47.9967H196.873C200.884 47.9967 204.445 48.6681 207.545 50.0007C210.645 51.3332 213.242 53.2958 215.337 55.8782C217.473 58.4607 219.086 61.6422 220.175 65.4332C221.264 69.2242 221.809 73.5936 221.809 78.5415V83.3862L221.798 83.3758Z" fill="#2B2B2B"/>
<path d="M377 57V128H360V57H377Z" fill="#2B2B2B"/>
<path d="M377 34H359V47H377V34Z" fill="#2B2B2B"/>
<path d="M271 57V128H253V57H271Z" fill="#2B2B2B"/>
<path d="M270 34H253V47H270V34Z" fill="#2B2B2B"/>
<path d="M330.445 59.0578L329.739 64.315C327.849 61.8959 325.585 59.969 322.916 58.5552C319.76 56.8587 315.865 56 311.234 56C306.863 56 302.927 56.8692 299.428 58.6181C295.97 60.3669 293 62.8279 290.539 66.0115C288.119 69.1951 286.261 73.0175 284.952 77.4682C283.654 81.8771 283 86.7886 283 92.1923V93.5641C283 98.7165 283.644 103.471 284.952 107.827C286.261 112.184 288.109 115.985 290.539 119.221C293.01 122.447 295.97 124.96 299.428 126.751C302.885 128.542 306.779 129.432 311.11 129.432C315.44 129.432 319.199 128.584 322.397 126.877C324.9 125.547 327.049 123.766 328.918 121.588L328.825 126.154C328.825 129.735 328.15 132.741 326.81 135.181C325.512 137.673 323.633 139.548 321.161 140.815C318.742 142.124 315.793 142.784 312.335 142.784C308.877 142.784 305.741 142.061 302.792 140.627C299.853 139.234 297.205 137.16 294.869 134.406L287.143 144.617C289.137 147.277 291.619 149.434 294.609 151.099C297.642 152.795 300.777 154.042 304.017 154.827C307.309 155.613 310.352 156 313.166 156C319.697 156 325.429 154.827 330.362 152.46C335.294 150.146 339.126 146.742 341.846 142.25C344.619 137.799 346 132.364 346 125.955V57.309H330.694L330.445 59.0578ZM324.09 113.399C321.836 114.886 318.939 115.619 315.388 115.619C312.75 115.619 310.476 115.053 308.576 113.922C306.676 112.791 305.097 111.22 303.841 109.21C302.584 107.157 301.66 104.801 301.047 102.141C300.435 99.481 300.134 96.6221 300.134 93.5641V92.1923C300.134 89.0506 300.435 86.1288 301.047 83.4165C301.691 80.7146 302.647 78.3374 303.903 76.2848C305.16 74.2323 306.759 72.6405 308.701 71.5095C310.653 70.3366 312.916 69.7397 315.512 69.7397C318.108 69.7397 320.507 70.2004 322.459 71.1115C324.412 72.0226 326.011 73.2898 327.257 74.9025C328.503 76.5152 329.489 78.4421 330.175 80.6623C330.912 82.8824 331.39 85.312 331.608 87.93V98.2034C331.265 101.523 330.486 104.508 329.271 107.168C328.098 109.786 326.374 111.859 324.079 113.388L324.09 113.399Z" fill="#2B2B2B"/>
<path d="M444.344 84.1074H420.561L420.432 74.1172H442.023C445.59 74.1172 448.705 73.5156 451.369 72.3125C454.033 71.1094 456.096 69.3906 457.557 67.1562C459.061 64.8789 459.812 62.1719 459.812 59.0352C459.812 55.5977 459.146 52.8047 457.814 50.6562C456.525 48.4648 454.527 46.875 451.82 45.8867C449.156 44.8555 445.762 44.3398 441.637 44.3398H423.332V128H410.893V34.1562H441.637C446.449 34.1562 450.746 34.6504 454.527 35.6387C458.309 36.584 461.51 38.0879 464.131 40.1504C466.795 42.1699 468.814 44.748 470.189 47.8848C471.564 51.0215 472.252 54.7812 472.252 59.1641C472.252 63.0312 471.264 66.5332 469.287 69.6699C467.311 72.7637 464.561 75.2988 461.037 77.2754C457.557 79.252 453.475 80.5195 448.791 81.0781L444.344 84.1074ZM443.764 128H415.662L422.688 117.881H443.764C447.717 117.881 451.068 117.193 453.818 115.818C456.611 114.443 458.738 112.51 460.199 110.018C461.66 107.482 462.391 104.496 462.391 101.059C462.391 97.5781 461.768 94.5703 460.521 92.0352C459.275 89.5 457.32 87.5449 454.656 86.1699C451.992 84.7949 448.555 84.1074 444.344 84.1074H426.619L426.748 74.1172H450.982L453.625 77.7266C458.137 78.1133 461.961 79.4023 465.098 81.5938C468.234 83.7422 470.619 86.4922 472.252 89.8438C473.928 93.1953 474.766 96.8906 474.766 100.93C474.766 106.773 473.477 111.715 470.898 115.754C468.363 119.75 464.775 122.801 460.135 124.906C455.494 126.969 450.037 128 443.764 128ZM494.426 34.1562H506.479L537.223 110.662L567.903 34.1562H580.02L541.864 128H532.454L494.426 34.1562ZM490.495 34.1562H501.13L502.87 91.3906V128H490.495V34.1562ZM573.253 34.1562H583.887V128H571.512V91.3906L573.253 34.1562ZM653.113 104.281C653.113 102.09 652.769 100.156 652.081 98.4805C651.437 96.7617 650.277 95.2148 648.601 93.8398C646.968 92.4648 644.691 91.1543 641.769 89.9082C638.89 88.6621 635.238 87.3945 630.812 86.1055C626.171 84.7305 621.982 83.2051 618.243 81.5293C614.505 79.8105 611.304 77.8555 608.64 75.6641C605.976 73.4727 603.935 70.959 602.517 68.123C601.099 65.2871 600.39 62.043 600.39 58.3906C600.39 54.7383 601.142 51.3652 602.646 48.2715C604.15 45.1777 606.298 42.4922 609.091 40.2148C611.927 37.8945 615.3 36.0898 619.21 34.8008C623.12 33.5117 627.482 32.8672 632.294 32.8672C639.341 32.8672 645.314 34.2207 650.212 36.9277C655.154 39.5918 658.913 43.0938 661.491 47.4336C664.07 51.7305 665.359 56.3281 665.359 61.2266H652.984C652.984 57.7031 652.232 54.5879 650.728 51.8809C649.224 49.1309 646.947 46.9824 643.896 45.4355C640.845 43.8457 636.978 43.0508 632.294 43.0508C627.868 43.0508 624.216 43.7168 621.337 45.0488C618.458 46.3809 616.31 48.1855 614.892 50.4629C613.517 52.7402 612.829 55.3398 612.829 58.2617C612.829 60.2383 613.238 62.043 614.054 63.6758C614.913 65.2656 616.224 66.748 617.986 68.123C619.79 69.498 622.068 70.7656 624.818 71.9258C627.611 73.0859 630.941 74.2031 634.808 75.2773C640.136 76.7812 644.734 78.457 648.601 80.3047C652.468 82.1523 655.648 84.2363 658.14 86.5566C660.675 88.834 662.544 91.4336 663.747 94.3555C664.993 97.2344 665.616 100.5 665.616 104.152C665.616 107.977 664.843 111.436 663.296 114.529C661.749 117.623 659.536 120.266 656.658 122.457C653.779 124.648 650.32 126.346 646.281 127.549C642.284 128.709 637.816 129.289 632.874 129.289C628.534 129.289 624.259 128.688 620.048 127.484C615.88 126.281 612.077 124.477 608.64 122.07C605.245 119.664 602.517 116.699 600.454 113.176C598.435 109.609 597.425 105.484 597.425 100.801H609.8C609.8 104.023 610.423 106.795 611.669 109.115C612.915 111.393 614.613 113.283 616.761 114.787C618.952 116.291 621.423 117.408 624.173 118.139C626.966 118.826 629.866 119.17 632.874 119.17C637.214 119.17 640.888 118.568 643.896 117.365C646.904 116.162 649.181 114.443 650.728 112.209C652.318 109.975 653.113 107.332 653.113 104.281Z" fill="#237373"/>
<defs>
<clipPath id="clip0_540_29198">
<rect width="128" height="128" fill="white"/>
</clipPath>
</defs>
</svg>
