<svg width="181" height="43" viewBox="0 0 181 43" fill="none" xmlns="http://www.w3.org/2000/svg">
<g clip-path="url(#clip0_540_28973)">
<path d="M5.7168 6.32219L16.4631 0.205078L27.2093 6.32219V9.33941L16.4631 15.7975V34.5931H11.6272V22.4829L5.7168 19.011V6.32219Z" fill="#F2F2F2"/>
<path d="M27.0158 13.215L27.0156 8.95142L34.0007 13.4373L34.0007 34.2051H27.0156L27.0158 13.215Z" fill="#F2F2F2"/>
<path d="M0 22.5008L5.91045 19.011L5.91045 24.6223V34.5931H0V22.5008Z" fill="#F2F2F2"/>
</g>
<path d="M63.632 16.4137C63.0806 14.9456 62.2843 13.6857 61.2405 12.6339C60.2079 11.5711 58.984 10.7552 57.566 10.189C56.1592 9.62291 54.6005 9.33984 52.8898 9.33984H45.1328V34.5936H52.7829C54.5301 34.5936 56.117 34.3105 57.5491 33.7444C58.9812 33.1783 60.2107 32.3679 61.2405 31.3161C62.2843 30.2644 63.0806 29.0045 63.632 27.5364C64.1947 26.0573 64.4761 24.4144 64.4761 22.6105V21.3451C64.4761 19.5301 64.1947 17.8873 63.632 16.4192V16.4137ZM59.5861 22.605C59.5861 24.3284 59.3273 25.8075 58.8124 27.0452C58.2975 28.2718 57.535 29.2126 56.5278 29.8731C55.5205 30.5197 54.2713 30.8444 52.7829 30.8444H49.9693V13.1002H52.8898C53.9674 13.1002 54.924 13.2805 55.7568 13.6385C56.5897 13.9965 57.2874 14.5238 57.8501 15.2176C58.4241 15.9114 58.8574 16.7661 59.15 17.7846C59.4426 18.8031 59.5889 19.9769 59.5889 21.3062V22.6078L59.5861 22.605Z" fill="#F2F2F2"/>
<path d="M101.282 15.519V34.5937H96.7148V15.519H101.282Z" fill="#F2F2F2"/>
<path d="M101.281 9.33984H96.4453V12.8324H101.281V9.33984Z" fill="#F2F2F2"/>
<path d="M72.8046 15.519V34.5937H67.9688V15.519H72.8046Z" fill="#F2F2F2"/>
<path d="M72.5359 9.33984H67.9688V12.8324H72.5359V9.33984Z" fill="#F2F2F2"/>
<path d="M88.7756 16.0718L88.5859 17.4841C88.0782 16.8342 87.47 16.3165 86.7531 15.9367C85.905 15.4809 84.8588 15.2502 83.6146 15.2502C82.4401 15.2502 81.3828 15.4838 80.4427 15.9536C79.5137 16.4235 78.7158 17.0846 78.0547 17.9399C77.4046 18.7952 76.9053 19.8221 76.5538 21.0178C76.2051 22.2023 76.0293 23.5218 76.0293 24.9735V25.3421C76.0293 26.7263 76.2023 28.0036 76.5538 29.174C76.9053 30.3444 77.4019 31.3657 78.0547 32.2351C78.7186 33.1016 79.5137 33.7768 80.4427 34.2579C81.3717 34.739 82.4178 34.9782 83.5811 34.9782C84.7445 34.9782 85.7543 34.7503 86.6136 34.2917C87.2859 33.9344 87.8634 33.4561 88.3655 32.8709L88.3404 34.0976C88.3404 35.0598 88.1591 35.8672 87.7992 36.5228C87.4505 37.1924 86.9456 37.696 86.2816 38.0364C85.6316 38.3881 84.8393 38.5653 83.9103 38.5653C82.9813 38.5653 82.1388 38.3712 81.3465 37.9858C80.5571 37.6116 79.8457 37.0545 79.218 36.3146L77.1424 39.0577C77.678 39.7723 78.3448 40.3519 79.1482 40.7992C79.9628 41.255 80.8053 41.5898 81.6757 41.8008C82.5601 42.0118 83.3775 42.1159 84.1335 42.1159C85.8882 42.1159 87.4282 41.8008 88.7533 41.165C90.0784 40.5432 91.1079 39.6288 91.8388 38.4218C92.5836 37.2261 92.9547 35.7659 92.9547 34.0441V15.6019H88.8425L88.7756 16.0718ZM87.0683 30.6708C86.4629 31.0703 85.6846 31.2672 84.7305 31.2672C84.0219 31.2672 83.411 31.1153 82.9004 30.8115C82.3899 30.5076 81.9659 30.0856 81.6283 29.5454C81.2908 28.994 81.0425 28.3609 80.8779 27.6463C80.7133 26.9317 80.6324 26.1636 80.6324 25.3421V24.9735C80.6324 24.1295 80.7133 23.3446 80.8779 22.6159C81.0508 21.89 81.3075 21.2513 81.645 20.6999C81.9826 20.1485 82.4122 19.7208 82.9339 19.417C83.4584 19.1019 84.0665 18.9415 84.764 18.9415C85.4614 18.9415 86.1059 19.0653 86.6303 19.3101C87.1548 19.5548 87.5844 19.8953 87.9192 20.3285C88.254 20.7618 88.519 21.2795 88.7031 21.8759C88.9012 22.4724 89.0295 23.1251 89.0881 23.8285V26.5885C88.996 27.4803 88.7868 28.2822 88.4604 28.9968C88.1452 29.7001 87.6821 30.2572 87.0655 30.668L87.0683 30.6708Z" fill="#F2F2F2"/>
<path d="M119.378 22.9794H112.989L112.954 20.2955H118.755C119.713 20.2955 120.55 20.1339 121.266 19.8107C121.981 19.4874 122.535 19.0257 122.928 18.4254C123.332 17.8136 123.534 17.0863 123.534 16.2436C123.534 15.3201 123.355 14.5698 122.997 13.9926C122.651 13.4038 122.114 12.9767 121.387 12.7112C120.671 12.4341 119.759 12.2956 118.651 12.2956H113.733V34.7715H110.391V9.55973H118.651C119.944 9.55973 121.098 9.69249 122.114 9.95799C123.13 10.212 123.99 10.616 124.694 11.1701C125.41 11.7127 125.952 12.4053 126.322 13.248C126.691 14.0907 126.876 15.1008 126.876 16.2782C126.876 17.3172 126.61 18.258 126.079 19.1007C125.548 19.9319 124.809 20.613 123.863 21.144C122.928 21.675 121.831 22.0155 120.573 22.1656L119.378 22.9794ZM119.222 34.7715H111.673L113.56 32.0529H119.222C120.284 32.0529 121.185 31.8682 121.924 31.4988C122.674 31.1294 123.245 30.6099 123.638 29.9404C124.03 29.2593 124.227 28.457 124.227 27.5335C124.227 26.5984 124.059 25.7904 123.724 25.1093C123.39 24.4282 122.864 23.903 122.149 23.5336C121.433 23.1642 120.509 22.9794 119.378 22.9794H114.616L114.651 20.2955H121.162L121.872 21.2652C123.084 21.3691 124.111 21.7154 124.954 22.3041C125.796 22.8813 126.437 23.6201 126.876 24.5206C127.326 25.421 127.551 26.4137 127.551 27.4989C127.551 29.0688 127.205 30.3964 126.512 31.4815C125.831 32.5551 124.867 33.3747 123.62 33.9403C122.374 34.4944 120.908 34.7715 119.222 34.7715ZM132.833 9.55973H136.071L144.331 30.1135L152.573 9.55973H155.828L145.578 34.7715H143.049L132.833 9.55973ZM131.777 9.55973H134.634L135.101 24.9361V34.7715H131.777V9.55973ZM154.01 9.55973H156.867V34.7715H153.543V24.9361L154.01 9.55973ZM175.465 28.3993C175.465 27.8105 175.373 27.2911 175.188 26.8409C175.015 26.3791 174.703 25.9635 174.253 25.5941C173.814 25.2247 173.203 24.8726 172.418 24.5379C171.644 24.2031 170.663 23.8626 169.474 23.5162C168.227 23.1468 167.102 22.737 166.097 22.2868C165.093 21.8251 164.233 21.2998 163.517 20.7111C162.802 20.1223 162.253 19.447 161.872 18.6851C161.491 17.9232 161.301 17.0517 161.301 16.0705C161.301 15.0892 161.503 14.183 161.907 13.3519C162.311 12.5207 162.888 11.7992 163.639 11.1874C164.4 10.564 165.307 10.0792 166.357 9.73289C167.408 9.38657 168.579 9.21342 169.872 9.21342C171.765 9.21342 173.37 9.57705 174.686 10.3043C176.014 11.02 177.024 11.9609 177.716 13.1268C178.409 14.2812 178.755 15.5164 178.755 16.8324H175.431C175.431 15.8858 175.229 15.0488 174.825 14.3216C174.421 13.5828 173.809 13.0056 172.989 12.59C172.169 12.1629 171.131 11.9493 169.872 11.9493C168.683 11.9493 167.702 12.1282 166.929 12.4861C166.155 12.844 165.578 13.3288 165.197 13.9406C164.828 14.5524 164.643 15.2508 164.643 16.0358C164.643 16.5668 164.753 17.0517 164.972 17.4904C165.203 17.9175 165.555 18.3157 166.028 18.6851C166.513 19.0545 167.125 19.3951 167.864 19.7068C168.614 20.0185 169.509 20.3186 170.548 20.6072C171.979 21.0112 173.214 21.4614 174.253 21.9578C175.292 22.4542 176.146 23.0141 176.816 23.6374C177.497 24.2493 177.999 24.9477 178.322 25.7327C178.657 26.5061 178.824 27.3834 178.824 28.3647C178.824 29.3921 178.617 30.3213 178.201 31.1525C177.786 31.9836 177.191 32.6936 176.418 33.2823C175.644 33.8711 174.715 34.327 173.63 34.6503C172.556 34.962 171.356 35.1178 170.028 35.1178C168.862 35.1178 167.714 34.9562 166.582 34.633C165.462 34.3097 164.441 33.8249 163.517 33.1784C162.605 32.532 161.872 31.7355 161.318 30.7889C160.776 29.8307 160.504 28.7225 160.504 27.4642H163.829C163.829 28.33 163.996 29.0746 164.331 29.698C164.666 30.3098 165.122 30.8177 165.699 31.2218C166.288 31.6258 166.952 31.9259 167.69 32.1222C168.441 32.3069 169.22 32.3992 170.028 32.3992C171.194 32.3992 172.181 32.2376 172.989 31.9144C173.797 31.5912 174.409 31.1294 174.825 30.5291C175.252 29.9288 175.465 29.2189 175.465 28.3993Z" fill="#F2F2F2"/>
<defs>
<clipPath id="clip0_540_28973">
<rect width="34.3881" height="34.3881" fill="white" transform="translate(0 0.205078)"/>
</clipPath>
</defs>
</svg>
