<svg width="181" height="44" viewBox="0 0 181 44" fill="none" xmlns="http://www.w3.org/2000/svg">
<g clip-path="url(#clip0_632_116378)">
<path d="M5.7168 7.32219L16.4631 1.20508L27.2093 7.32219V10.3394L16.4631 16.7975V35.5931H11.6272V23.4829L5.7168 20.011V7.32219Z" fill="#237373"/>
<path d="M27.0158 14.2148L27.0156 9.95117L34.0007 14.437L34.0007 35.2049H27.0156L27.0158 14.2148Z" fill="#237373"/>
<path d="M0 23.5005L5.91045 20.0107L5.91045 25.6221V35.5928H0V23.5005Z" fill="#237373"/>
</g>
<path d="M63.632 17.4117C63.0806 15.9437 62.2843 14.6838 61.2405 13.632C60.2079 12.5691 58.984 11.7532 57.566 11.1871C56.1592 10.621 54.6005 10.3379 52.8898 10.3379H45.1328V35.5916H52.7829C54.5301 35.5916 56.117 35.3086 57.5491 34.7424C58.9812 34.1763 60.2107 33.366 61.2405 32.3142C62.2843 31.2624 63.0806 30.0025 63.632 28.5345C64.1947 27.0553 64.4761 25.4124 64.4761 23.6086V22.3431C64.4761 20.5282 64.1947 18.8853 63.632 17.4173V17.4117ZM59.5861 23.603C59.5861 25.3264 59.3273 26.8055 58.8124 28.0433C58.2975 29.2699 57.535 30.2106 56.5278 30.8711C55.5205 31.5177 54.2713 31.8424 52.7829 31.8424H49.9693V14.0982H52.8898C53.9674 14.0982 54.924 14.2786 55.7568 14.6366C56.5897 14.9946 57.2874 15.5218 57.8501 16.2156C58.4241 16.9094 58.8574 17.7642 59.15 18.7826C59.4426 19.8011 59.5889 20.975 59.5889 22.3043V23.6058L59.5861 23.603Z" fill="#2A2A2A"/>
<path d="M101.282 16.5166V35.5912H96.7148V16.5166H101.282Z" fill="#2A2A2A"/>
<path d="M101.281 10.3379H96.4453V13.8304H101.281V10.3379Z" fill="#2A2A2A"/>
<path d="M72.8046 16.5166V35.5912H67.9688V16.5166H72.8046Z" fill="#2A2A2A"/>
<path d="M72.5359 10.3379H67.9688V13.8304H72.5359V10.3379Z" fill="#2A2A2A"/>
<path d="M88.7756 17.0696L88.5859 18.4819C88.0782 17.832 87.47 17.3143 86.7531 16.9345C85.905 16.4788 84.8588 16.248 83.6146 16.248C82.4401 16.248 81.3828 16.4816 80.4427 16.9514C79.5137 17.4213 78.7158 18.0824 78.0547 18.9377C77.4046 19.793 76.9053 20.8199 76.5538 22.0156C76.2051 23.2001 76.0293 24.5196 76.0293 25.9713V26.3399C76.0293 27.7241 76.2023 29.0014 76.5538 30.1718C76.9053 31.3422 77.4019 32.3635 78.0547 33.2329C78.7186 34.0994 79.5137 34.7746 80.4427 35.2557C81.3717 35.7368 82.4178 35.976 83.5811 35.976C84.7445 35.976 85.7543 35.7481 86.6136 35.2895C87.2859 34.9322 87.8634 34.4539 88.3655 33.8687L88.3404 35.0954C88.3404 36.0576 88.1591 36.865 87.7992 37.5206C87.4505 38.1902 86.9456 38.6938 86.2816 39.0342C85.6316 39.3859 84.8393 39.5631 83.9103 39.5631C82.9813 39.5631 82.1388 39.369 81.3465 38.9836C80.5571 38.6094 79.8457 38.0523 79.218 37.3124L77.1424 40.0555C77.678 40.7701 78.3448 41.3497 79.1482 41.797C79.9628 42.2528 80.8053 42.5876 81.6757 42.7986C82.5601 43.0096 83.3775 43.1137 84.1335 43.1137C85.8882 43.1137 87.4282 42.7986 88.7533 42.1628C90.0784 41.541 91.1079 40.6266 91.8388 39.4197C92.5836 38.2239 92.9547 36.7638 92.9547 35.0419V16.5997H88.8425L88.7756 17.0696ZM87.0683 31.6686C86.4629 32.0681 85.6846 32.265 84.7305 32.265C84.0219 32.265 83.411 32.1131 82.9004 31.8093C82.3899 31.5054 81.9659 31.0834 81.6283 30.5432C81.2908 29.9918 81.0425 29.3587 80.8779 28.6441C80.7133 27.9295 80.6324 27.1614 80.6324 26.3399V25.9713C80.6324 25.1273 80.7133 24.3424 80.8779 23.6137C81.0508 22.8878 81.3075 22.2491 81.645 21.6977C81.9826 21.1463 82.4122 20.7186 82.9339 20.4148C83.4584 20.0997 84.0665 19.9393 84.764 19.9393C85.4614 19.9393 86.1059 20.0631 86.6303 20.3079C87.1548 20.5526 87.5844 20.8931 87.9192 21.3263C88.254 21.7596 88.519 22.2773 88.7031 22.8737C88.9012 23.4702 89.0295 24.1229 89.0881 24.8263V27.5863C88.996 28.4781 88.7868 29.28 88.4604 29.9946C88.1452 30.6979 87.6821 31.255 87.0655 31.6658L87.0683 31.6686Z" fill="#2A2A2A"/>
<path d="M119.378 23.9794H112.989L112.954 21.2955H118.755C119.713 21.2955 120.55 21.1339 121.266 20.8107C121.981 20.4874 122.535 20.0257 122.928 19.4254C123.332 18.8136 123.534 18.0863 123.534 17.2436C123.534 16.3201 123.355 15.5698 122.997 14.9926C122.651 14.4038 122.114 13.9767 121.387 13.7112C120.671 13.4341 119.759 13.2956 118.651 13.2956H113.733V35.7715H110.391V10.5597H118.651C119.944 10.5597 121.098 10.6925 122.114 10.958C123.13 11.212 123.99 11.616 124.694 12.1701C125.41 12.7127 125.952 13.4053 126.322 14.248C126.691 15.0907 126.876 16.1008 126.876 17.2782C126.876 18.3172 126.61 19.258 126.079 20.1007C125.548 20.9319 124.809 21.613 123.863 22.144C122.928 22.675 121.831 23.0155 120.573 23.1656L119.378 23.9794ZM119.222 35.7715H111.673L113.56 33.0529H119.222C120.284 33.0529 121.185 32.8682 121.924 32.4988C122.674 32.1294 123.245 31.6099 123.638 30.9404C124.03 30.2593 124.227 29.457 124.227 28.5335C124.227 27.5984 124.059 26.7904 123.724 26.1093C123.39 25.4282 122.864 24.903 122.149 24.5336C121.433 24.1642 120.509 23.9794 119.378 23.9794H114.616L114.651 21.2955H121.162L121.872 22.2652C123.084 22.3691 124.111 22.7154 124.954 23.3041C125.796 23.8813 126.437 24.6201 126.876 25.5206C127.326 26.421 127.551 27.4137 127.551 28.4989C127.551 30.0688 127.205 31.3964 126.512 32.4815C125.831 33.5551 124.867 34.3747 123.62 34.9403C122.374 35.4944 120.908 35.7715 119.222 35.7715ZM132.833 10.5597H136.071L144.331 31.1135L152.573 10.5597H155.828L145.578 35.7715H143.049L132.833 10.5597ZM131.777 10.5597H134.634L135.101 25.9361V35.7715H131.777V10.5597ZM154.01 10.5597H156.867V35.7715H153.543V25.9361L154.01 10.5597ZM175.465 29.3993C175.465 28.8105 175.373 28.2911 175.188 27.8409C175.015 27.3791 174.703 26.9635 174.253 26.5941C173.814 26.2247 173.203 25.8726 172.418 25.5379C171.644 25.2031 170.663 24.8626 169.474 24.5162C168.227 24.1468 167.102 23.737 166.097 23.2868C165.093 22.8251 164.233 22.2998 163.517 21.7111C162.802 21.1223 162.253 20.447 161.872 19.6851C161.491 18.9232 161.301 18.0517 161.301 17.0705C161.301 16.0892 161.503 15.183 161.907 14.3519C162.311 13.5207 162.888 12.7992 163.639 12.1874C164.4 11.564 165.307 11.0792 166.357 10.7329C167.408 10.3866 168.579 10.2134 169.872 10.2134C171.765 10.2134 173.37 10.577 174.686 11.3043C176.014 12.02 177.024 12.9609 177.716 14.1268C178.409 15.2812 178.755 16.5164 178.755 17.8324H175.431C175.431 16.8858 175.229 16.0488 174.825 15.3216C174.421 14.5828 173.809 14.0056 172.989 13.59C172.169 13.1629 171.131 12.9493 169.872 12.9493C168.683 12.9493 167.702 13.1282 166.929 13.4861C166.155 13.844 165.578 14.3288 165.197 14.9406C164.828 15.5524 164.643 16.2508 164.643 17.0358C164.643 17.5668 164.753 18.0517 164.972 18.4904C165.203 18.9175 165.555 19.3157 166.028 19.6851C166.513 20.0545 167.125 20.3951 167.864 20.7068C168.614 21.0185 169.509 21.3186 170.548 21.6072C171.979 22.0112 173.214 22.4614 174.253 22.9578C175.292 23.4542 176.146 24.0141 176.816 24.6374C177.497 25.2493 177.999 25.9477 178.322 26.7327C178.657 27.5061 178.824 28.3834 178.824 29.3647C178.824 30.3921 178.617 31.3213 178.201 32.1525C177.786 32.9836 177.191 33.6936 176.418 34.2823C175.644 34.8711 174.715 35.327 173.63 35.6503C172.556 35.962 171.356 36.1178 170.028 36.1178C168.862 36.1178 167.714 35.9562 166.582 35.633C165.462 35.3097 164.441 34.8249 163.517 34.1784C162.605 33.532 161.872 32.7355 161.318 31.7889C160.776 30.8307 160.504 29.7225 160.504 28.4642H163.829C163.829 29.33 163.996 30.0746 164.331 30.698C164.666 31.3098 165.122 31.8177 165.699 32.2218C166.288 32.6258 166.952 32.9259 167.69 33.1222C168.441 33.3069 169.22 33.3992 170.028 33.3992C171.194 33.3992 172.181 33.2376 172.989 32.9144C173.797 32.5912 174.409 32.1294 174.825 31.5291C175.252 30.9288 175.465 30.2189 175.465 29.3993Z" fill="#237373"/>
<defs>
<clipPath id="clip0_632_116378">
<rect width="34.3881" height="34.3881" fill="white" transform="translate(0 1.20508)"/>
</clipPath>
</defs>
</svg>
